#!OML:ASF H:\MichaelJackson\Top Level 1\Subject 1\Session 1\male.ASF
:FULLY-SPECIFIED
:DEGREES
1555
root -3.52676 16.815 25.9976 -177.027 -213.943 -180.61
lowerback 4.11386 -6.5264 -3.6096
upperback -0.443509 -8.89109 -0.591124
thorax -2.29384 -4.38791 1.88422
lowerneck -5.37918 -6.39748 -0.655687
upperneck 1.53378 -8.64659 4.82715
head 1.65161 -4.22114 1.34955
rclavicle 6.06293e-015 7.95139e-016
rhumerus -61.4592 14.1971 -85.0594
rradius 115.875
rwrist -9.77709
rhand 9.02855 -9.60005
rfingers 7.12502
rthumb 34.2044 -36.3382
lclavicle 6.06293e-015 7.95139e-016
lhumerus -38.6739 -43.4135 94.5043
lradius 69.8688
lwrist 11.8669
lhand 26.8053 17.6289
lfingers 7.12502
lthumb 50.8132 38.4139
rfemur -44.9822 -23.1884 17.8476
rtibia 87.6858
rfoot 1.80951 -27.1887
rtoes 46.0765
lfemur -25.1475 25.7571 -20.17
ltibia 40.6429
lfoot -18.6827 15.3689
ltoes -5.55817
1556
root -3.52416 16.8261 26.0339 -176.661 -214.16 -180.483
lowerback 3.55458 -6.70959 -3.31387
upperback -0.613888 -9.10587 -0.700072
thorax -2.20999 -4.5005 1.56747
lowerneck -5.43296 -6.34331 -0.675101
upperneck 1.60944 -8.57802 4.86435
head 1.68672 -4.18413 1.36424
rclavicle -3.65515e-014 -6.36111e-015
rhumerus -61.8162 15.54 -83.9983
rradius 118.374
rwrist -8.91598
rhand 10.1239 -8.5874
rfingers 7.12502
rthumb 35.2438 -35.0862
lclavicle -3.65515e-014 -6.36111e-015
lhumerus -40.0575 -43.5463 96.2525
lradius 69.09
lwrist 11.5732
lhand 27.7007 18.4726
lfingers 7.12502
lthumb 51.6284 38.7964
rfemur -42.3119 -22.173 16.4474
rtibia 84.2398
rfoot 0.472094 -28.1188
rtoes 47.4538
lfemur -25.3428 26.0629 -20.3254
ltibia 40.4396
lfoot -17.7985 14.9367
ltoes -4.90757
1557
root -3.52185 16.8347 26.067 -176.232 -214.247 -180.303
lowerback 3.01197 -6.84796 -2.99429
upperback -0.789302 -9.26393 -0.830026
thorax -2.15308 -4.58481 1.21657
lowerneck -5.57421 -6.31474 -0.828455
upperneck 1.6576 -8.53817 5.01651
head 1.74245 -4.15909 1.43438
rclavicle -9.81002e-014 -2.3059e-014
rhumerus -61.9461 16.8314 -82.5379
rradius 120.833
rwrist -7.98868
rhand 11.4614 -8.1407
rfingers 7.12502
rthumb 36.5111 -34.33
lclavicle -9.81002e-014 -2.3059e-014
lhumerus -41.2028 -43.4526 97.8615
lradius 68.1537
lwrist 11.1825
lhand 28.3217 19.0105
lfingers 7.12502
lthumb 52.1919 39.0015
rfemur -39.8282 -21.0423 15.1106
rtibia 80.7204
rfoot -0.18862 -28.2908
rtoes 47.9153
lfemur -25.6849 26.2629 -20.5606
ltibia 40.2732
lfoot -17.0633 13.7269
ltoes -1.32256
1558
root -3.52068 16.8415 26.0962 -175.807 -214.154 -180.178
lowerback 2.47705 -6.95142 -2.60734
upperback -0.985557 -9.3766 -0.938479
thorax -2.13282 -4.64701 0.852441
lowerneck -5.77461 -6.21447 -0.672847
upperneck 1.79998 -8.41412 4.80484
head 1.80101 -4.09524 1.33793
rclavicle 2.65626e-014 2.38542e-015
rhumerus -61.8047 18.0346 -80.6201
rradius 123.095
rwrist -7.54903
rhand 12.8348 -7.85353
rfingers 7.12502
rthumb 37.8098 -33.7042
lclavicle 2.65626e-014 2.38542e-015
lhumerus -42.3406 -43.0507 99.3145
lradius 67.326
lwrist 10.7274
lhand 29.2733 19.8038
lfingers 7.12502
lthumb 53.0524 39.2629
rfemur -37.5717 -19.7899 13.9563
rtibia 77.1396
rfoot -0.553927 -27.8613
rtoes 47.4661
lfemur -26.0606 26.2522 -20.7538
ltibia 40.1663
lfoot -16.5738 13.9044
ltoes -1.1553
1559
root -3.52103 16.8424 26.1217 -175.45 -213.943 -180.072
lowerback 2.00752 -7.02629 -2.16114
upperback -1.16238 -9.45512 -1.07686
thorax -2.1461 -4.69345 0.433359
lowerneck -5.70695 -6.0963 -0.697894
upperneck 1.71096 -8.2525 4.86751
head 1.76003 -4.01598 1.37153
rclavicle -7.38734e-014 -9.54166e-015
rhumerus -61.3877 19.0708 -78.2302
rradius 125.215
rwrist -7.25129
rhand 14.3604 -7.91662
rfingers 7.12502
rthumb 39.2492 -33.3648
lclavicle -7.38734e-014 -9.54166e-015
lhumerus -43.4341 -42.4771 100.597
lradius 66.4822
lwrist 10.217
lhand 29.7257 20.1911
lfingers 7.12502
lthumb 53.4602 39.3877
rfemur -35.4147 -18.5338 12.91
rtibia 73.5238
rfoot -0.858557 -27.1538
rtoes 46.2716
lfemur -26.2268 25.7958 -20.7893
ltibia 40.1388
lfoot -16.4498 14.1733
ltoes 0.669448
1560
root -3.52105 16.8411 26.1487 -175.189 -213.508 -179.962
lowerback 1.51687 -7.00235 -1.71898
upperback -1.23334 -9.40249 -1.23592
thorax -2.04407 -4.67702 -0.0196469
lowerneck -5.89397 -6.00013 -0.673748
upperneck 1.70984 -8.12514 4.83059
head 1.78596 -3.95037 1.35517
rclavicle 6.80837e-015 1.03368e-014
rhumerus -60.5934 20.0737 -75.4315
rradius 126.983
rwrist -7.77607
rhand 14.9008 -8.04404
rfingers 7.12502
rthumb 39.7583 -33.3426
lclavicle 6.80837e-015 1.03368e-014
lhumerus -44.2815 -41.9012 101.652
lradius 65.6117
lwrist 9.78788
lhand 30.1364 20.7146
lfingers 7.12502
lthumb 53.8296 39.6672
rfemur -33.3131 -17.2488 11.95
rtibia 69.8684
rfoot -1.37568 -26.4134
rtoes 44.3237
lfemur -26.2999 25.45 -20.7543
ltibia 40.1822
lfoot -16.4064 14.5354
ltoes 2.33616
